<svg xmlns="http://www.w3.org/2000/svg" viewBox="0 0 128 128" role="img" aria-label="1337x logo">
  <defs>
    <linearGradient id="g" x1="0" y1="0" x2="1" y2="1">
      <stop offset="0" stop-color="#0f172a"/>
      <stop offset="1" stop-color="#1e293b"/>
    </linearGradient>
  </defs>
  <rect width="128" height="128" rx="24" fill="url(#g)"/>
  <path d="M28 34h20v10H38v10h10v10H28V34zm30 0h20v10H68v10h10v10H58V34zm30 0h20v10H98v10h10v10H88V34z" fill="#f97316"/>
  <path d="M34 82l12-12 12 12 12-12 12 12 12-12 8 8-20 20-12-12-12 12-12-12-12 12-20-20 8-8z" fill="#e2e8f0"/>
</svg>
