<?xml version="1.0" encoding="utf-8"?>
<!-- Generator: Adobe Illustrator 19.0.0, SVG Export Plug-In . SVG Version: 6.00 Build 0)  -->
<svg version="1.1" id="Layer_1" xmlns="http://www.w3.org/2000/svg" xmlns:xlink="http://www.w3.org/1999/xlink" x="0px" y="0px"
	 viewBox="-176 305.5 257.6 183.5" style="enable-background:new -176 305.5 257.6 183.5;" xml:space="preserve">
<style type="text/css">
	.st0{fill:#FFFFFF;}
	.st1{fill-rule:evenodd;clip-rule:evenodd;fill:#312B13;}
	.st2{fill-rule:evenodd;clip-rule:evenodd;fill:#695F28;}
	.st3{fill:#312B13;}
	.st4{fill-rule:evenodd;clip-rule:evenodd;fill:#B9A64E;}
	.st5{fill-rule:evenodd;clip-rule:evenodd;fill:#F6E177;}
</style>
<path id="XMLID_44_" class="st0" d="M-131.9,342.4L-131.9,342.4z"/>
<path id="XMLID_11_" class="st1" d="M-49.2,485.5C29.9,463.9,40,397,40,374.9c0-22.1-6.8-45.3-24.6-69.4c-13.4,5.3-42.8,7.7-64.6,0
	c-21.8,7.7-51.2,5.3-64.6,0c-17.8,24.1-24.6,47.4-24.6,69.4C-138.4,397-128.3,463.9-49.2,485.5z"/>
<path id="XMLID_72_" class="st2" d="M26.2,413.2l-45.5,1.1l46.5-3.8c0.7-1.9,1.3-3.9,1.9-5.7l-48.7,6.3l49.5-9.3
	c0.6-2.1,1.1-4.2,1.5-6.1l-51.7,12.3l52.3-15.6c0.4-2.4,0.8-4.5,1-6.5l-54.3,19.1l54.7-22.8c0.3-3.2,0.4-5.6,0.4-6.9l-56.4,26.7
	l56.3-30.8c-0.1-2.4-0.3-4.7-0.5-7l-57.4,35l56.9-39.3c-0.4-2.4-0.8-4.8-1.4-7.2l-57.4,43.8l56.3-48.3c-0.7-2.4-1.4-4.8-2.3-7.1
	l-56.2,53.1l54.4-57.6c-1-2.4-2-4.7-3.2-7L-30.6,392l51.3-67.1c-1.3-2.3-2.6-4.6-4-6.9l-49.8,72.1l46.8-76.8c-0.3-0.5-0.6-1-1-1.4
	c-2.4,0.7-5,1.3-7.8,1.9L-36,388.5l35-73.8c-2.6,0.3-5.3,0.6-8,0.8L-39,387.2l25.1-71.4c-2.3,0.1-4.7,0.1-7.1,0l-21,70.4l16.8-70.6
	c-2.2-0.1-4.5-0.3-6.7-0.6l-13.3,70.6l9.2-71.1c-2.2-0.3-4.4-0.7-6.6-1.2l-5.8,72l1.7-73c-1.1-0.3-2.3-0.6-3.3-1
	c-1.1,0.4-2.2,0.7-3.3,1l1.7,73l-5.8-72c-2.1,0.5-4.3,0.9-6.6,1.2l9.2,71.1L-68,315c-2.2,0.3-4.4,0.5-6.7,0.6l16.8,70.6l-21-70.4
	c-2.4,0.1-4.8,0.1-7.1,0l25.1,71.4l-29.9-71.7c-2.8-0.2-5.4-0.4-8-0.8l35,73.8l-40.8-74.7c-2.8-0.5-5.4-1.2-7.8-1.9
	c-0.3,0.5-0.7,1-1,1.4l46.8,76.8l-49.8-72.1c-1.4,2.3-2.8,4.6-4,6.9l51.3,67.1l-53.6-62.5c-1.1,2.3-2.2,4.7-3.2,7l54.4,57.6
	l-56.2-53.1c-0.8,2.4-1.6,4.8-2.3,7.1l56.3,48.3l-57.4-43.8c-0.5,2.4-1,4.8-1.4,7.2l56.9,39.3l-57.4-35c-0.2,2.3-0.4,4.7-0.5,7
	l56.3,30.8l-56.4-26.7c0,1.3,0.1,3.6,0.4,6.9l54.7,22.8l-54.3-19.1c0.2,2,0.6,4.2,1,6.5l52.3,15.6l-51.7-12.3c0.4,2,0.9,4,1.5,6.1
	l49.5,9.3l-48.7-6.3c0.6,1.9,1.2,3.8,1.9,5.7l46.5,3.8l-45.5-1.1c0.7,1.8,1.4,3.5,2.2,5.3l43.3-1l-42.2,3.4c0.8,1.6,1.6,3.3,2.5,5
	l40-5.2l-38.9,7.3c0.9,1.5,1.8,3.1,2.7,4.6l36.8-8.7l-35.6,10.6c0.9,1.4,1.9,2.8,3,4.2l33.6-11.8l-32.3,13.5c1,1.3,2.1,2.6,3.2,3.9
	l30.5-14.4l-29.2,15.9c1.1,1.2,2.2,2.4,3.3,3.6l27.5-16.7l-26.1,18.1c1.1,1.1,2.3,2.2,3.5,3.3l24.5-18.7l-23.2,19.9
	c1.2,1,2.4,2,3.6,3l21.8-20.5l-20.4,21.6c1.2,0.9,2.5,1.9,3.7,2.8l19.1-22.2L-87,463c1.3,0.9,2.5,1.7,3.9,2.5l16.4-23.8l-15,24.6
	c1.3,0.8,2.6,1.5,4,2.3l13.8-25.3l-12.4,26.1c1.3,0.7,2.7,1.4,4.1,2.1l11.2-26.9l-9.7,27.6c1.4,0.6,2.8,1.3,4.3,1.9l8.5-28.5
	l-6.9,29.1c1.4,0.6,2.9,1.2,4.4,1.7l5.7-30.2l-4,30.8c1.5,0.5,3,1,4.6,1.5l2.6-32l-0.8,32.5c0.8,0.2,1.6,0.5,2.4,0.7
	c0.8-0.2,1.6-0.5,2.4-0.7l-0.8-32.5l2.6,32c1.6-0.5,3.1-1,4.6-1.5l-4-30.8l5.7,30.2c1.5-0.6,3-1.1,4.4-1.7l-6.9-29.1l8.5,28.5
	c1.4-0.6,2.9-1.2,4.3-1.9l-9.7-27.6l11.2,26.9c1.4-0.7,2.8-1.4,4.1-2.1L-36,443.3l13.8,25.3c1.4-0.7,2.7-1.5,4-2.3l-15-24.6
	l16.4,23.8c1.3-0.8,2.6-1.7,3.9-2.5l-17.7-23.2l19.1,22.2c1.3-0.9,2.5-1.8,3.7-2.8l-20.4-21.6l21.8,20.5c1.2-1,2.5-2,3.6-3
	l-23.2-19.9L-1.5,454c1.2-1.1,2.4-2.2,3.5-3.3l-26.1-18.1l27.5,16.7c1.2-1.2,2.3-2.4,3.3-3.6l-29.2-15.9l30.5,14.4
	c1.1-1.3,2.2-2.6,3.2-3.9l-32.3-13.5l33.6,11.8c1-1.4,2-2.8,3-4.2l-35.6-10.6l36.8,8.7c1-1.5,1.9-3.1,2.7-4.6l-38.9-7.3l40,5.2
	c0.9-1.7,1.7-3.3,2.5-5l-42.2-3.4l43.3,1C24.8,416.7,25.5,415,26.2,413.2z"/>
<g id="XMLID_10_">
	<path id="XMLID_17_" class="st3" d="M27,415.3c-3.4-2.3-8.2-2.7-10.6,0.9c2,3.4,1.1,6.2,1.1,6.3c-0.6,1.4-6.5,3.4-17.1,3.4
		c-6.2,0-14.2-1.7-23.6-3.6c-15.3-3.2-34.4-7.1-59.1-7.1c-20.7,0-37.2,2.6-41.3,24c-1.4,7.5-2.7,24.4,4.9,33.6
		c2.8,3.4,6,9.2,14.8,9.2c2.8,0,6.5,0.4,7.5-3.2l0.4-1.5c0,0-1.9-2-2.5-3.8c2.2-2.3,10.9-6.4,24.6-6.4c15,0,24.6,7.7,33.8,11.8
		c8.3,3.7,16.8,7.5,27.9,7.5c23.9,0,39-26.5,42.3-47.1C32.2,427.9,30.4,417.5,27,415.3z"/>
	<path id="XMLID_9_" class="st4" d="M-104,476.7c0.5,0.2,0.8-0.6,0.4-0.9c-7.5-6.8,3.4-16.1,27.5-16.1c30.6,0,41.2,16,61.7,16
		c24.4,0,42.4-43.9,35.1-57.8c-0.3-0.6-1.2-0.2-1,0.4C23.1,425.7,14.5,432-2,432c-17.7,0-42.9-10.6-82.6-10.6
		c-19.3,0-28.5,6.3-31.2,20.5C-118.2,453.8-116.8,471.7-104,476.7z"/>
</g>
<g id="XMLID_4_">
	<path id="XMLID_24_" class="st3" d="M7.6,337.4c0-10.7-1.4-15.2-5.3-17.3c-2.4-1.2-5.2-1.1-7.4,0.5c-2.2,1.5-3.4,4.1-3.3,7
		c-2.2,0.5-5.5,1-9.9,1c-2.2,0-6.6-0.7-11.2-1.5c-7.2-1.2-16.2-2.7-24.5-2.8c-13.9-0.2-26.4,4.6-35.4,13.4c-8.5,8.4-13,19.5-13,32.4
		c0,17.8,15.3,29.8,29.7,30c-10.1,1.8-19.6,11-19.6,25.5c0,14.3,11.2,29.4,32,29.4c24.5,0,44.5-18.7,44.5-41.8
		c0-22.3,4.3-32.5,5.7-34.3c3-3,3.9-7,2.4-10.6c-0.6-1.4-1.5-2.7-2.7-3.7C0.2,359.8,7.6,349.3,7.6,337.4z M-48.4,371
		c-0.2-1.1-0.5-2.2-0.9-3.2c-1.3-3.2-3.4-6-6-8c3.8,0.8,7.4,1.9,11.2,3.1c0.9,0.3,1.8,0.6,2.7,0.9C-44.1,365.7-46.4,368.1-48.4,371z
		 M-54.1,391.4c0.4-0.5,0.8-1,1.1-1.5c0.1,1.9,0.3,3.7,0.5,5.5c0.3,2.6,0.5,5.1,0.5,7.6c0,2.4-0.1,4.5-0.4,6.5
		c-3-5.4-8.7-9.6-16-9.8C-62.9,398.9-57.9,396-54.1,391.4z"/>
	<g id="XMLID_1_">
		<path id="XMLID_8_" class="st5" d="M-4.4,325.3c0,0,0.6,0.6,0.6,3.1c0,2.5-7.9,4.7-17.4,4.7c-6.5,0-22.4-4.2-35.8-4.4
			c-22.7-0.3-41.4,14.6-41.4,38.9c0,14.9,13.4,23.2,23.3,23.2c10.8,0,17.3-10.7,17.3-17.8c0-1.9-0.3-3.6-0.9-5
			c-1.7-4.5-6.1-7.8-11.3-7.8c-6.7,0-12.1,5.4-12.1,12.1c0,4.3,2.3,8.1,5.7,10.3c-5-1.2-10.5-5.7-10.5-15.2
			c0-11.5,10.1-18,20.5-17.7c15.6,0,26.9,8.4,41.1,8.4c12.6,0,23-10.5,23-23C-2.3,321.5-4.4,325.3-4.4,325.3z"/>
		<path id="XMLID_7_" class="st5" d="M-28,363.4c-8.4,0-14,3.4-17.7,9c-6,9.1-2.3,18-2.3,28.2c0,22.5-11.7,31.7-21,31.7
			c-5.5,0-11.4-2.5-12.6-9.1c2.2,3.1,5.8,5.1,9.9,5.1c6.7,0,12.1-5.4,12.1-12.1c0-5.8-4.1-10.7-9.6-11.9c0,0,0,0,0,0
			c-0.1,0-0.3,0-0.4,0c-0.7-0.1-1.3-0.2-2-0.2c-1.4,0-2.8,0.3-4.1,0.7c-7.3,2.1-12.3,9.2-12.3,18.2c0,10.2,8,22.5,25.2,22.5
			c21.2,0,37.6-16,37.6-34.9c0-25.5,4.3-39.1,7.7-39.1C-17.7,365.2-23.5,363.4-28,363.4z"/>
	</g>
</g>
</svg>