<svg data-name="Capa 2" viewBox="0 0 205 59.1" xmlns="http://www.w3.org/2000/svg"><path d="M179.9 0h-15.8l-10.6 24.7h-28.4v11.5h11.2v6.9c-2.4 1.5-5.3 2.4-9.1 2.4-9 0-15.4-6.6-15.4-15.7v-.2c0-8.7 6.3-15.6 14.5-15.6 5.6 0 9.6 1.9 13.7 5.4l9.2-11.1c-6-5.2-13.1-8.3-23-8.3H52.9L35.1 23.6 17.7 0H0v59.1h16V28.5l19.2 26.1 19-26.1V59h48.1V48.4C107.9 55 116.5 59 126.6 59h29.6l4.2-10.5h22.8l4.3 10.5H205L179.9 0ZM72.1 45.1v-9.4h20.1V22.8H72.1v-8.9h28c-2.8 4.5-4.4 9.8-4.4 15.6v.2c0 5.8 1.5 11 4.2 15.4H72.1Zm93.1-9.2 6.7-16.7 6.6 16.7h-13.3Z" style="fill:#dc000c" data-name="Capa 1"/></svg>