<svg data-name="Capa 2" viewBox="0 0 205 55.1" xmlns="http://www.w3.org/2000/svg"><path d="M23.7 1.6c-6.2 0-11.3 1.2-15.8 4.9C6.4 4.9 4 3.7 0 2.5V55h11.6V23.4c0-7 4.4-11 11.3-11 6.4 0 9.2 4.2 9.2 10.6v32h11.6l.1-.3v-32C44 10.2 37.3 1.6 23.7 1.6ZM77.5 55c12.2 0 22.1-7.7 22.1-20.5v-14C99.6 8.5 90.5 0 77.3 0 65.1 0 55.2 7.7 55.2 20.5v13.9c.1 12.2 9 20.6 22.3 20.6ZM67 20.4c0-6.9 4.2-9.9 10.3-9.9 6.5 0 10.5 3.2 10.5 9.8v14.2c-.3 5.8-3.6 9-8.4 9.7-.6.1-1.2.1-1.9.1-5.9 0-9.8-3.8-10.5-9.2V20.4Zm75.4-18.2-12.2 34.7L118 2.3v-.1h-12.6l19.1 52.2h.1c1.8.7 3.8.7 5.6.7 2 0 4 0 5.8-.7h.1l19-52.2h-12.7ZM205 54.5V20.7c0-3-.5-5.7-1.6-8.3-1.1-2.5-2.6-4.7-4.6-6.5s-4.4-3.3-7.1-4.3c-2.8-1-5.8-1.5-9.1-1.5-4.2 0-8.1.9-11.5 2.6-1.5.8-2.9 1.7-4.2 2.8-4.3 3.8-6.5 9-6.5 15.2v13.8c0 5.9 2.1 10.9 6 14.6.7.7 1.4 1.3 2.2 1.8.5.4 1.1.7 1.7 1 .3.2.6.3.9.5.6.3 1.2.6 1.8.8 1.9.7 3.9 1.2 6 1.5.7.1 1.4.1 2.2.2h1.7c1.2 0 2.4-.1 3.5-.3 3.2-.4 5.9-1.3 8.3-2.6.9-.5 1.7-1 2.4-1.5 1.6 1.5 3.9 2.6 7.6 3.8l.3.2Zm-13.7-14.1c-1.1 1.5-2.5 2.6-4.4 3.3 0 0-.5.2-.6.2-1.2.4-2.6.6-4.1.6-6.4 0-9.7-3.3-9.7-9.9V20.7c0-8 5.5-9.7 10.1-9.7 6.5 0 10.1 3.3 10.3 9.2v14.6c0 2.2-.6 4.1-1.6 5.6Z" style="fill:#ff374a" data-name="Capa 1"/></svg>