<svg xmlns="http://www.w3.org/2000/svg" width="400" height="600" viewBox="0 0 400 600">
  <defs>
    <linearGradient id="bg" x1="0" y1="0" x2="1" y2="1">
      <stop offset="0" stop-color="#eef1f5"/>
      <stop offset="1" stop-color="#d9dee6"/>
    </linearGradient>
    <linearGradient id="frame" x1="0" y1="0" x2="0" y2="1">
      <stop offset="0" stop-color="#ffffff"/>
      <stop offset="1" stop-color="#f1f4f8"/>
    </linearGradient>
  </defs>

  <rect width="400" height="600" fill="url(#bg)"/>
  <rect x="28" y="36" width="344" height="528" rx="16" fill="url(#frame)" stroke="#c9d1dc"/>

  <rect x="52" y="70" width="296" height="200" rx="10" fill="#c7d2e2"/>
  <circle cx="270" cy="110" r="24" fill="#f3c969"/>
  <path d="M70 250 L140 170 L200 230 L250 180 L330 250 Z" fill="#8fa7c4"/>
  <path d="M70 250 L160 200 L210 240 L250 210 L330 250 Z" fill="#6f8aa9"/>

  <rect x="72" y="300" width="256" height="16" rx="8" fill="#c9d1dc"/>
  <rect x="72" y="328" width="220" height="12" rx="6" fill="#d5dbe4"/>
  <rect x="72" y="352" width="180" height="12" rx="6" fill="#d5dbe4"/>
</svg>
